<svg xmlns="http://www.w3.org/2000/svg" width="176" height="16"><g fill="#FFF" fill-rule="evenodd"><path d="M129.79 4.8c-.74 0-1.77.52-2.06 1.33h-.06V4.9h-1.27V12h1.33V8.18c0-1.3.93-2.07 1.84-2.07.3 0 .52.03.71.1l.5-1.24a2.43 2.43 0 0 0-1-.18M153.8 1.46h1.33V12h-1.33V1.46ZM149.66 4.8c-1.44 0-2.77.8-2.77 2.04 0 1.21 1.21 1.76 1.84 1.92l1.43.33c.73.19.99.56.99.92 0 .57-.62.95-1.42.95-.83 0-1.55-.4-1.91-1.3l-1.15.48c.4 1 1.39 1.99 3.04 1.99 1.62 0 2.76-.94 2.76-2.17 0-.84-.58-1.68-1.94-2l-1.4-.33c-.55-.12-.92-.36-.92-.8 0-.56.68-.87 1.4-.87.68 0 1.35.27 1.62.92l1.12-.47c-.42-1.05-1.5-1.62-2.7-1.62M159.58 10.93c-.68 0-1.5-.35-1.5-1.08 0-.63.6-1.32 1.96-1.32 1.1 0 1.63.4 1.63.4 0 1.13-1.07 2-2.1 2m.29-6.14c-1.73 0-2.7 1.01-2.94 1.64l1.18.5c.24-.64 1.07-.94 1.79-.94.97 0 1.78.6 1.78 1.7v.2a3.86 3.86 0 0 0-1.85-.43c-1.62 0-3.12.8-3.12 2.36 0 1.44 1.26 2.3 2.67 2.3 1.18 0 1.86-.63 2.24-1.2h.06V12h1.25V7.74c0-1.93-1.37-2.95-3.06-2.95M134.32 10.93c-.67 0-1.5-.35-1.5-1.08 0-.63.6-1.32 1.97-1.32 1.1 0 1.62.4 1.62.4 0 1.13-1.06 2-2.09 2m.28-6.14c-1.72 0-2.7 1.01-2.94 1.64l1.18.5c.24-.64 1.08-.94 1.8-.94.96 0 1.77.6 1.77 1.7v.2a3.86 3.86 0 0 0-1.85-.43c-1.61 0-3.11.8-3.11 2.36 0 1.44 1.26 2.3 2.66 2.3 1.18 0 1.87-.63 2.24-1.2h.06V12h1.26V7.74c0-1.93-1.38-2.95-3.07-2.95M170.4 7.62c.25-1 1.03-1.63 2-1.63 1.5 0 2 1.04 2.05 1.63h-4.05m2.02-2.83c-2.05 0-3.42 1.72-3.42 3.67 0 2.08 1.43 3.67 3.57 3.67 1.6 0 2.64-.9 3.05-1.89l-1.17-.47c-.37.87-1.14 1.16-1.91 1.16a2.2 2.2 0 0 1-2.23-2.22h5.52l.02-.25c0-2.22-1.34-3.67-3.43-3.67M142.78 4.8A2.7 2.7 0 0 0 140.53 6h-.06v-1.1h-1.27V12h1.33V8.2c0-1.09.71-2.19 1.87-2.19 1.02 0 1.75.5 1.75 1.97V12h1.34V7.78c0-1.75-.9-2.99-2.71-2.99M166.4 2.8h-1.33v2.1h-1.25v1.23h1.25v3.72c0 1.45.8 2.28 2.29 2.28.44 0 .76-.06 1.07-.2l-.47-1.14c-.18.1-.36.12-.6.12-.63 0-.96-.36-.96-1.16V6.13h1.74V4.9h-1.74V2.8M125.95 1.46h-7.22v1.37h2.94v9.16h1.35V2.83h2.93V1.46M73.16 5.59v1.63h3.92c-.12.93-.42 1.6-.9 2.07a4.02 4.02 0 0 1-3.02 1.2 4.3 4.3 0 0 1-4.3-4.36 4.3 4.3 0 0 1 7.26-3.2l1.15-1.15A5.72 5.72 0 0 0 73.16.13c-3.3 0-6.09 2.69-6.09 6 0 3.3 2.78 6 6.09 6 1.78 0 3.13-.59 4.19-1.69a5.42 5.42 0 0 0 1.41-3.83c0-.38-.02-.73-.08-1.02h-5.52M83.67 4.25a3.82 3.82 0 0 0-3.9 3.88 3.83 3.83 0 0 0 3.9 3.87 3.83 3.83 0 0 0 3.88-3.87 3.82 3.82 0 0 0-3.88-3.88Zm0 6.22c-1.18 0-2.19-.96-2.19-2.34 0-1.4 1.01-2.35 2.19-2.35 1.17 0 2.18.95 2.18 2.35 0 1.38-1.01 2.34-2.18 2.34ZM102.72 5.12h-.06a2.68 2.68 0 0 0-2.04-.87C98.7 4.25 97 5.95 97 8.13c0 2.17 1.69 3.87 3.62 3.87.93 0 1.66-.41 2.04-.88h.06v.54c0 1.48-.8 2.27-2.07 2.27a2.14 2.14 0 0 1-1.95-1.37l-1.48.61a3.69 3.69 0 0 0 3.43 2.3c2 0 3.68-1.18 3.68-4.04V4.45h-1.61v.67Zm-1.95 5.35c-1.17 0-2.07-1-2.07-2.34 0-1.37.9-2.35 2.07-2.35 1.16 0 2.07 1 2.07 2.36 0 1.35-.91 2.33-2.07 2.33ZM92.33 4.25a3.82 3.82 0 0 0-3.88 3.88A3.83 3.83 0 0 0 92.33 12a3.83 3.83 0 0 0 3.9-3.87 3.82 3.82 0 0 0-3.9-3.88Zm0 6.22c-1.17 0-2.18-.96-2.18-2.34 0-1.4 1.01-2.35 2.18-2.35 1.18 0 2.19.95 2.19 2.35 0 1.38-1.01 2.34-2.19 2.34ZM105.67.29h1.67V12h-1.67V.29ZM112.51 10.47c-.87 0-1.48-.4-1.88-1.17l5.18-2.14-.18-.44c-.32-.87-1.3-2.47-3.31-2.47-2 0-3.65 1.57-3.65 3.88A3.79 3.79 0 0 0 112.5 12c1.77 0 2.8-1.09 3.23-1.72l-1.32-.88a2.21 2.21 0 0 1-1.91 1.07Zm-.13-4.76c.7 0 1.28.35 1.47.85l-3.5 1.45c0-1.63 1.16-2.3 2.03-2.3Z"/><text font-family="Roboto" font-size="12" opacity=".87">
                <tspan x="0" y="12">powered by</tspan>
            </text></g></svg>