
<svg width="0" height="0">
  <symbol xmlns="http://www.w3.org/2000/svg" viewBox="0 0 24 24" id="file" fill="none" stroke="currentColor" stroke-width="2" stroke-linecap="round" stroke-linejoin="round"><path d="M14 2H6a2 2 0 0 0-2 2v16a2 2 0 0 0 2 2h12a2 2 0 0 0 2-2V8z"></path><polyline points="14 2 14 8 20 8"></polyline><line x1="16" y1="13" x2="8" y2="13"></line><line x1="16" y1="17" x2="8" y2="17"></line><polyline points="10 9 9 9 8 9"></polyline></symbol>
  <symbol xmlns="http://www.w3.org/2000/svg" viewBox="0 0 24 24" id="arrow-right" fill="none" stroke="currentColor" stroke-width="2" stroke-linecap="round" stroke-linejoin="round"><path d="M3 12H21M21 12L14 5M21 12L14 19" stroke="currentColor" stroke-width="2" stroke-linecap="round" stroke-linejoin="round"/></symbol>
  <symbol xmlns="http://www.w3.org/2000/svg" viewBox="0 0 24 24" id="arrow-left" fill="none" stroke="currentColor" stroke-width="2" stroke-linecap="round" stroke-linejoin="round"><path d="M21 12H3M3 12L10 5M3 12L10 19" stroke="currentColor" stroke-width="2" stroke-linecap="round" stroke-linejoin="round"/></symbol>
  <symbol xmlns="http://www.w3.org/2000/svg" viewBox="0 0 24 24" id="search" fill="none"><path stroke="currentColor" stroke-linecap="round" stroke-linejoin="round" stroke-width="2" d="M22 22l-4.5-4.5M20 11a9 9 0 11-18 0 9 9 0 0118 0z"/></symbol>
  <symbol xmlns="http://www.w3.org/2000/svg" viewBox="0 0 24 24" id="facebook" fill="none"><path d="M23 12C23 5.92486 18.0751 1 12 1C5.92486 1 1 5.92486 1 12C1 17.4903 5.02252 22.0412 10.2812 22.8664V15.1797H7.48828V12H10.2812V9.57656C10.2812 6.81969 11.9235 5.29688 14.4361 5.29688C15.6397 5.29688 16.8984 5.51172 16.8984 5.51172V8.21875H15.5114C14.145 8.21875 13.7188 9.06674 13.7188 9.93664V12H16.7695L16.2818 15.1797H13.7188V22.8664C18.9775 22.0412 23 17.4903 23 12Z" fill="currentColor"/></symbol>
  <symbol xmlns="http://www.w3.org/2000/svg" viewBox="0 0 24 24" id="twitter" fill="none"><path d="M7.54752 21.5012C16.6042 21.5012 21.5578 13.9979 21.5578 7.49101C21.5578 7.27789 21.5578 7.06573 21.5434 6.85453C22.507 6.15748 23.3389 5.29441 24 4.30573C23.1013 4.70394 22.148 4.96508 21.1718 5.08045C22.1998 4.46507 22.9691 3.49719 23.3366 2.35693C22.3701 2.93049 21.3126 3.3347 20.2099 3.55213C19.4675 2.76271 18.4856 2.23997 17.4162 2.06481C16.3468 1.88966 15.2494 2.07184 14.294 2.58318C13.3385 3.09452 12.5782 3.9065 12.1307 4.89348C11.6833 5.88045 11.5735 6.98739 11.8186 8.04301C9.86088 7.94486 7.94572 7.43613 6.19741 6.54981C4.4491 5.6635 2.90672 4.41943 1.6704 2.89837C1.04073 3.98236 0.847872 5.2656 1.1311 6.48679C1.41433 7.70798 2.15234 8.77532 3.19488 9.47149C2.41127 9.44826 1.64475 9.23688 0.96 8.85517C0.96 8.87533 0.96 8.89645 0.96 8.91757C0.960311 10.0544 1.35385 11.1562 2.07387 12.0359C2.79389 12.9157 3.79606 13.5193 4.9104 13.7444C4.18547 13.9421 3.42488 13.9711 2.68704 13.8289C3.00169 14.8073 3.61427 15.6629 4.43911 16.276C5.26395 16.8892 6.25979 17.2291 7.28736 17.2484C5.54375 18.6188 3.38982 19.3627 1.17216 19.3604C0.780387 19.3597 0.388996 19.336 0 19.2894C2.25181 20.7345 4.87192 21.501 7.54752 21.4974" fill="currentColor"/></symbol>
  <symbol xmlns="http://www.w3.org/2000/svg" viewBox="0 0 24 24" id="rss" fill="none"><path d="M4 10.5C6.38695 10.5 8.67613 11.4482 10.364 13.136C12.0518 14.8239 13 17.1131 13 19.5M4 3.5C8.24346 3.5 12.3131 5.18571 15.3137 8.18629C18.3143 11.1869 20 15.2565 20 19.5M6 18.5C6 19.0523 5.55228 19.5 5 19.5C4.44772 19.5 4 19.0523 4 18.5C4 17.9477 4.44772 17.5 5 17.5C5.55228 17.5 6 17.9477 6 18.5Z" stroke="currentColor" stroke-width="2" stroke-linecap="round" stroke-linejoin="round"/></symbol>
  <symbol xmlns="http://www.w3.org/2000/svg" viewBox="0 0 24 24" id="instagram" fill="none"><path d="M12.0025 6.35828C8.88098 6.35828 6.36319 8.87607 6.36319 11.9975C6.36319 15.119 8.88098 17.6368 12.0025 17.6368C15.1239 17.6368 17.6417 15.119 17.6417 11.9975C17.6417 8.87607 15.1239 6.35828 12.0025 6.35828ZM12.0025 15.6638C9.98528 15.6638 8.3362 14.0196 8.3362 11.9975C8.3362 9.97546 9.98037 8.33129 12.0025 8.33129C14.0245 8.33129 15.6687 9.97546 15.6687 11.9975C15.6687 14.0196 14.0196 15.6638 12.0025 15.6638ZM19.1877 6.12761C19.1877 6.8589 18.5988 7.44295 17.8724 7.44295C17.1411 7.44295 16.5571 6.85399 16.5571 6.12761C16.5571 5.40123 17.146 4.81227 17.8724 4.81227C18.5988 4.81227 19.1877 5.40123 19.1877 6.12761ZM22.9227 7.46258C22.8393 5.70061 22.4368 4.13988 21.146 2.85399C19.8601 1.5681 18.2994 1.16564 16.5374 1.0773C14.7215 0.974233 9.27853 0.974233 7.46258 1.0773C5.70552 1.16074 4.14479 1.56319 2.85399 2.84908C1.56319 4.13497 1.16564 5.69571 1.0773 7.45767C0.974233 9.27362 0.974233 14.7166 1.0773 16.5325C1.16074 18.2945 1.56319 19.8552 2.85399 21.1411C4.14479 22.427 5.70061 22.8294 7.46258 22.9178C9.27853 23.0209 14.7215 23.0209 16.5374 22.9178C18.2994 22.8344 19.8601 22.4319 21.146 21.1411C22.4319 19.8552 22.8344 18.2945 22.9227 16.5325C23.0258 14.7166 23.0258 9.27853 22.9227 7.46258ZM20.5767 18.481C20.1939 19.4429 19.4528 20.184 18.4859 20.5718C17.038 21.146 13.6025 21.0135 12.0025 21.0135C10.4025 21.0135 6.96196 21.1411 5.51902 20.5718C4.55705 20.189 3.81595 19.4479 3.42822 18.481C2.85399 17.0331 2.9865 13.5975 2.9865 11.9975C2.9865 10.3975 2.8589 6.95706 3.42822 5.51411C3.81104 4.55215 4.55215 3.81104 5.51902 3.42331C6.96687 2.84908 10.4025 2.9816 12.0025 2.9816C13.6025 2.9816 17.0429 2.85399 18.4859 3.42331C19.4479 3.80613 20.189 4.54724 20.5767 5.51411C21.1509 6.96196 21.0184 10.3975 21.0184 11.9975C21.0184 13.5975 21.1509 17.038 20.5767 18.481Z" fill="currentColor"/></symbol>
  <symbol xmlns="http://www.w3.org/2000/svg" viewBox="0 0 24 24" id="dash" fill="none"><path d="M8 12H16" stroke="currentColor" stroke-width="2" stroke-linecap="round"/></symbol>
  <symbol xmlns="http://www.w3.org/2000/svg" viewBox="0 0 24 24" id="play" fill="none"><path fill="currentColor" d="M3 2v20l18-10L3 2z"/></symbol>
  <symbol xmlns="http://www.w3.org/2000/svg" viewBox="0 0 24 24" id="info" fill="none"><path stroke="currentColor" stroke-linecap="round" stroke-linejoin="round" stroke-width="2" d="M12 16v-4m0-4h.01M22 12c0-5.523-4.477-10-10-10S2 6.477 2 12s4.477 10 10 10 10-4.477 10-10z"/></symbol>
  <symbol xmlns="http://www.w3.org/2000/svg" viewBox="0 0 24 24" id="add" fill="none"><path d="M12 4V20M4 12H20" stroke="currentColor" stroke-width="2" stroke-linecap="round"/></symbol>
  <symbol xmlns="http://www.w3.org/2000/svg" viewBox="0 0 24 24" id="arrow-down" fill="none"><path d="M12 2V22M12 22L5 15M12 22L19 15" stroke="currentColor" stroke-width="2" stroke-linecap="round" stroke-linejoin="round"/></symbol>
  <symbol xmlns="http://www.w3.org/2000/svg" viewBox="0 0 24 24" id="arrow-up" fill="none"><path d="M12 22V2M12 2L19 9M12 2L5 9" stroke="currentColor" stroke-width="2" stroke-linecap="round" stroke-linejoin="round"/></symbol>
  <symbol xmlns="http://www.w3.org/2000/svg" viewBox="0 0 24 24" id="bookmark" fill="none"><path d="M19 21L12 16L5 21V5C5 4.46957 5.21071 3.96086 5.58579 3.58579C5.96086 3.21071 6.46957 3 7 3H17C17.5304 3 18.0391 3.21071 18.4142 3.58579C18.7893 3.96086 19 4.46957 19 5V21Z" stroke="currentColor" stroke-width="2" stroke-linecap="round" stroke-linejoin="round"/></symbol>
  <symbol xmlns="http://www.w3.org/2000/svg" viewBox="0 0 24 24" id="calendar" fill="none"><path d="M19 4H5C3.89543 4 3 4.89543 3 6V20C3 21.1046 3.89543 22 5 22H19C20.1046 22 21 21.1046 21 20V6C21 4.89543 20.1046 4 19 4Z" stroke="currentColor" stroke-width="2" stroke-linecap="round" stroke-linejoin="round"/><path d="M16 2V6" stroke="currentColor" stroke-width="2" stroke-linecap="round" stroke-linejoin="round"/><path d="M8 2V6" stroke="currentColor" stroke-width="2" stroke-linecap="round" stroke-linejoin="round"/><path d="M3 10H21" stroke="currentColor" stroke-width="2" stroke-linecap="round" stroke-linejoin="round"/></symbol>
  <symbol xmlns="http://www.w3.org/2000/svg" viewBox="0 0 24 24" id="chevron-left" fill="none"><path d="M16 4L8 12L16 20" stroke="currentColor" stroke-width="2" stroke-linecap="round" stroke-linejoin="round"/></symbol>
  <symbol xmlns="http://www.w3.org/2000/svg" viewBox="0 0 24 24" id="chevron-right" fill="none"><path d="M8 20L16 12L8 4" stroke="currentColor" stroke-width="2" stroke-linecap="round" stroke-linejoin="round"/></symbol>
  <symbol xmlns="http://www.w3.org/2000/svg" viewBox="0 0 24 24" id="chevron-down" fill="none"><path d="M4 8L12 16L20 8" stroke="currentColor" stroke-width="2" stroke-linecap="round" stroke-linejoin="round"/></symbol>
  <symbol xmlns="http://www.w3.org/2000/svg" viewBox="0 0 24 24" id="chevron-up" fill="none"><path d="M20 16L12 8L4 16" stroke="currentColor" stroke-width="2" stroke-linecap="round" stroke-linejoin="round"/></symbol>
  <symbol xmlns="http://www.w3.org/2000/svg" viewBox="0 0 24 24" id="chevron-solid" fill="none"><path d="M15 13L9 17L9 9L15 13Z" fill="currentColor"/></symbol>
  <symbol xmlns="http://www.w3.org/2000/svg" viewBox="0 0 24 24" id="clipboard" fill="none"><path d="M15.9147 4.11719H17.9147C18.4452 4.11719 18.9539 4.3279 19.3289 4.70297C19.704 5.07805 19.9147 5.58675 19.9147 6.11719V20.1172C19.9147 20.6476 19.704 21.1563 19.3289 21.5314C18.9539 21.9065 18.4452 22.1172 17.9147 22.1172H5.91473C5.3843 22.1172 4.87559 21.9065 4.50052 21.5314C4.12545 21.1563 3.91473 20.6476 3.91473 20.1172V6.11719C3.91473 5.58675 4.12545 5.07805 4.50052 4.70297C4.87559 4.3279 5.3843 4.11719 5.91473 4.11719H7.91473M8.91473 2.11719H14.9147C15.467 2.11719 15.9147 2.5649 15.9147 3.11719V5.11719C15.9147 5.66947 15.467 6.11719 14.9147 6.11719H8.91473C8.36245 6.11719 7.91473 5.66947 7.91473 5.11719V3.11719C7.91473 2.5649 8.36245 2.11719 8.91473 2.11719Z" stroke="currentColor" stroke-width="2" stroke-linecap="round" stroke-linejoin="round"/></symbol>
  <symbol xmlns="http://www.w3.org/2000/svg" viewBox="0 0 24 24" id="close" fill="none"><path d="M19 5L5 19" stroke="currentColor" stroke-width="2" stroke-linecap="round" stroke-linejoin="round"/><path d="M5 5L19 19" stroke="currentColor" stroke-width="2" stroke-linecap="round" stroke-linejoin="round"/></symbol>
  <symbol xmlns="http://www.w3.org/2000/svg" viewBox="0 0 24 24" id="copy" fill="none"><path d="M6.4 14.4H5.6C5.17565 14.4 4.76869 14.2314 4.46863 13.9314C4.16857 13.6313 4 13.2243 4 12.8V5.6C4 5.17565 4.16857 4.76869 4.46863 4.46863C4.76869 4.16857 5.17565 4 5.6 4H12.8C13.2243 4 13.6313 4.16857 13.9314 4.46863C14.2314 4.76869 14.4 5.17565 14.4 5.6V6.4M11.2 9.6H18.4C19.2837 9.6 20 10.3163 20 11.2V18.4C20 19.2837 19.2837 20 18.4 20H11.2C10.3163 20 9.6 19.2837 9.6 18.4V11.2C9.6 10.3163 10.3163 9.6 11.2 9.6Z" stroke="currentColor" stroke-width="2" stroke-linecap="round" stroke-linejoin="round"/></symbol>
  <symbol xmlns="http://www.w3.org/2000/svg" viewBox="0 0 24 24" id="double-down" fill="none"><path d="M8 13L12 17L16 13M8 7L12 11L16 7" stroke="currentColor" stroke-width="2" stroke-linecap="round" stroke-linejoin="round"/></symbol>
  <symbol xmlns="http://www.w3.org/2000/svg" viewBox="0 0 24 24" id="download" fill="none"><path d="M21 15V19C21 19.5304 20.7893 20.0391 20.4142 20.4142C20.0391 20.7893 19.5304 21 19 21H5C4.46957 21 3.96086 20.7893 3.58579 20.4142C3.21071 20.0391 3 19.5304 3 19V15M7 10L12 15M12 15L17 10M12 15V3" stroke="currentColor" stroke-width="2" stroke-linecap="round" stroke-linejoin="round"/></symbol>
  <symbol xmlns="http://www.w3.org/2000/svg" viewBox="0 0 24 24" id="filters" fill="none"><path d="M3 5H17M17 5C17 6.10457 17.8954 7 19 7C20.1046 7 21 6.10457 21 5C21 3.89543 20.1046 3 19 3C17.8954 3 17 3.89543 17 5ZM3 12H10M10 12C10 13.1046 10.8954 14 12 14C13.1046 14 14 13.1046 14 12M10 12C10 10.8954 10.8954 10 12 10C13.1046 10 14 10.8954 14 12M14 12H21M7 19H21M7 19C7 20.1046 6.10457 21 5 21C3.89543 21 3 20.1046 3 19C3 17.8954 3.89543 17 5 17C6.10457 17 7 17.8954 7 19Z" stroke="currentColor" stroke-width="2" stroke-linecap="round" stroke-linejoin="round"/></symbol>
  <symbol xmlns="http://www.w3.org/2000/svg" viewBox="0 0 24 24" id="log-out" fill="none"><path d="M9 21H5C4.46957 21 3.96086 20.7893 3.58579 20.4142C3.21071 20.0391 3 19.5304 3 19V5C3 4.46957 3.21071 3.96086 3.58579 3.58579C3.96086 3.21071 4.46957 3 5 3H9M16 17L21 12M21 12L16 7M21 12H9" stroke="currentColor" stroke-width="2" stroke-linecap="round" stroke-linejoin="round"/></symbol>
  <symbol xmlns="http://www.w3.org/2000/svg" viewBox="0 0 24 24" id="mail" fill="none"><path d="M4 4H20C21.1 4 22 4.9 22 6V18C22 19.1 21.1 20 20 20H4C2.9 20 2 19.1 2 18V6C2 4.9 2.9 4 4 4Z" stroke="currentColor" stroke-width="2" stroke-linecap="round" stroke-linejoin="round"/><path d="M22 6L12 13L2 6" stroke="currentColor" stroke-width="2" stroke-linecap="round" stroke-linejoin="round"/></symbol>
  <symbol xmlns="http://www.w3.org/2000/svg" viewBox="0 0 24 24" id="map-pin" fill="none"><path fill-rule="evenodd" clip-rule="evenodd" d="M12.1818 22C12.1818 22 20.3636 16.5455 20.3636 10.1818C20.3636 8.01187 19.5016 5.93079 17.9672 4.3964C16.4329 2.86201 14.3518 2 12.1818 2C10.0119 2 7.93079 2.86201 6.3964 4.3964C4.86201 5.93079 4 8.01187 4 10.1818C4 16.5455 12.1818 22 12.1818 22ZM14.909 10.1818C14.909 11.688 13.688 12.9091 12.1818 12.9091C10.6755 12.9091 9.4545 11.688 9.4545 10.1818C9.4545 8.67557 10.6755 7.45453 12.1818 7.45453C13.688 7.45453 14.909 8.67557 14.909 10.1818Z" fill="currentColor"/></symbol>
  <symbol xmlns="http://www.w3.org/2000/svg" viewBox="0 0 24 24" id="menu" fill="none"><path d="M2 4H22M2 12H22M2 20H22" stroke="currentColor" stroke-width="2" stroke-linecap="round" stroke-linejoin="round"/></symbol>
  <symbol xmlns="http://www.w3.org/2000/svg" viewBox="0 0 24 24" id="phone" fill="none"><path d="M22 16.92V19.92C22.0011 20.1985 21.9441 20.4741 21.8325 20.7293C21.7209 20.9845 21.5573 21.2136 21.3521 21.4018C21.1468 21.5901 20.9046 21.7335 20.6407 21.8227C20.3769 21.9119 20.0974 21.945 19.82 21.92C16.7428 21.5856 13.787 20.5341 11.19 18.85C8.77382 17.3146 6.72533 15.2661 5.18999 12.85C3.49997 10.2412 2.44824 7.27097 2.11999 4.17997C2.095 3.90344 2.12787 3.62474 2.21649 3.3616C2.30512 3.09846 2.44756 2.85666 2.63476 2.6516C2.82196 2.44653 3.0498 2.28268 3.30379 2.1705C3.55777 2.05831 3.83233 2.00024 4.10999 1.99997H7.10999C7.5953 1.9952 8.06579 2.16705 8.43376 2.48351C8.80173 2.79996 9.04207 3.23942 9.10999 3.71997C9.23662 4.68004 9.47144 5.6227 9.80999 6.52997C9.94454 6.8879 9.97366 7.27689 9.8939 7.65086C9.81415 8.02482 9.62886 8.36809 9.35999 8.63998L8.08999 9.90997C9.51355 12.4135 11.5864 14.4864 14.09 15.91L15.36 14.64C15.6319 14.3711 15.9751 14.1858 16.3491 14.1061C16.7231 14.0263 17.1121 14.0554 17.47 14.19C18.3773 14.5285 19.3199 14.7634 20.28 14.89C20.7658 14.9585 21.2094 15.2032 21.5265 15.5775C21.8437 15.9518 22.0122 16.4296 22 16.92Z" stroke="currentColor" stroke-width="2" stroke-linecap="round" stroke-linejoin="round"/></symbol>
  <symbol xmlns="http://www.w3.org/2000/svg" viewBox="0 0 24 24" id="repeat" fill="none"><path d="M17 1L21 5L17 9" stroke="currentColor" stroke-width="2" stroke-linecap="round" stroke-linejoin="round"/><path d="M3 11V9C3 7.93913 3.42143 6.92172 4.17157 6.17157C4.92172 5.42143 5.93913 5 7 5H21" stroke="currentColor" stroke-width="2" stroke-linecap="round" stroke-linejoin="round"/><path d="M7 23L3 19L7 15" stroke="currentColor" stroke-width="2" stroke-linecap="round" stroke-linejoin="round"/><path d="M21 13V15C21 16.0609 20.5786 17.0783 19.8284 17.8284C19.0783 18.5786 18.0609 19 17 19H3" stroke="currentColor" stroke-width="2" stroke-linecap="round" stroke-linejoin="round"/></symbol>
  <symbol xmlns="http://www.w3.org/2000/svg" viewBox="0 0 24 24" id="tick" fill="none"><path d="M4 12.3529L9.64706 18L21 6" stroke="currentColor" stroke-width="2" stroke-linecap="round" stroke-linejoin="round"/></symbol>
  <symbol xmlns="http://www.w3.org/2000/svg" viewBox="0 0 24 24" id="medium" fill="none"><path d="M4.37162 7.23905C4.39646 6.99353 4.30284 6.75087 4.11951 6.58564L2.2521 4.33604V4H8.05042L12.5322 13.8292L16.4725 4H22V4.33604L20.4034 5.86689C20.2657 5.97181 20.1974 6.14426 20.226 6.31494V17.5629C20.1974 17.7336 20.2657 17.9061 20.4034 18.011L21.9627 19.5418V19.8779H14.1195V19.5418L15.7348 17.9736C15.8936 17.815 15.8936 17.7683 15.8936 17.5256V8.43385L11.4024 19.8405H10.7955L5.56676 8.43385V16.0788C5.52316 16.4002 5.62991 16.7238 5.85621 16.9562L7.95705 19.5045V19.8405H2V19.5045L4.10084 16.9562C4.32549 16.7234 4.42601 16.3976 4.37162 16.0788V7.23905Z" fill="currentColor"/></symbol>
  <symbol xmlns="http://www.w3.org/2000/svg" viewBox="0 0 24 24" id="web" fill="none"><path fill-rule="evenodd" clip-rule="evenodd" d="M12 24C5.37 24 0 18.63 0 12C0 5.37 5.37 0 12 0C18.63 0 24 5.37 24 12C24 18.63 18.63 24 12 24ZM15.98 13H8.02C8.24 18.1 10.13 22 12 22C13.87 22 15.76 18.1 15.98 13ZM8.02 11H15.98C15.76 5.9 13.87 2 12 2C10.13 2 8.24 5.9 8.02 11ZM6.02 13H2.05C2.42 16.69 4.79 19.8 8.07 21.2C6.89 19.19 6.15 16.27 6.02 13ZM2.05 11H6.02C6.15 7.73 6.89 4.81 8.07 2.8C4.79 4.2 2.42 7.31 2.05 11ZM21.95 13H17.98C17.85 16.27 17.11 19.19 15.93 21.2C19.21 19.8 21.58 16.69 21.95 13ZM17.98 11H21.95C21.58 7.31 19.21 4.2 15.93 2.8C17.11 4.81 17.85 7.73 17.98 11Z" fill="currentColor"/></symbol>
  <symbol xmlns="http://www.w3.org/2000/svg" viewBox="0 0 24 24" id="github" fill="none"><path fill-rule="evenodd" clip-rule="evenodd" d="M12 1C5.92265 1 1 5.92265 1 12C1 16.8619 4.15347 20.981 8.52241 22.4395C9.06937 22.5408 9.27194 22.2032 9.27194 21.9061C9.27194 21.6427 9.26519 20.954 9.25844 20.0356C6.19951 20.6974 5.55126 18.5635 5.55126 18.5635C5.05156 17.294 4.32904 16.9497 4.32904 16.9497C3.32965 16.2676 4.40331 16.2812 4.40331 16.2812C5.50399 16.3622 6.09147 17.4156 6.09147 17.4156C7.07059 19.097 8.66421 18.6108 9.2922 18.3272C9.39349 17.6182 9.6771 17.132 9.98772 16.8551C7.55003 16.585 4.98404 15.6397 4.98404 11.426C4.98404 10.2241 5.40945 9.24494 6.11848 8.47514C6.00368 8.19153 5.62554 7.07735 6.21977 5.56476C6.21977 5.56476 7.14487 5.26765 9.24494 6.69245C10.1228 6.44936 11.0614 6.32781 12 6.32106C12.9319 6.32781 13.8772 6.44936 14.7551 6.69245C16.8551 5.26765 17.7802 5.56476 17.7802 5.56476C18.3812 7.07735 18.0031 8.19828 17.8883 8.47514C18.5905 9.24494 19.016 10.2241 19.016 11.426C19.016 15.6532 16.4432 16.5783 13.992 16.8551C14.3837 17.1928 14.7416 17.868 14.7416 18.8944C14.7416 20.3665 14.7281 21.5482 14.7281 21.9128C14.7281 22.2099 14.9239 22.5476 15.4843 22.4395C19.8533 20.981 23 16.8619 23 12.0068C23 5.92265 18.0773 1 12 1Z" fill="currentColor"/></symbol>
 </svg>
