<svg xmlns="http://www.w3.org/2000/svg" xml:space="preserve" width="99.971" height="30.499"><path fill="#7ac62a" d="m55.795 41.868-1.325-.765c-4.273-2.35-4.572-2.873-4.47-7.755v-2.004h3.17v2.065c-.076 3.64-.356 3.155 2.83 4.908l1.441.835-1.645 2.718" style="stroke-width:.5" transform="translate(-49.985 -15.293)"/><path fill="#f25635" d="m70.296 42.712-2.048 1.182c-2.084 1.265-3.126 1.898-4.47 1.898-1.342 0-2.384-.633-4.47-1.898l-2.134-1.232 1.644-2.716 2.131 1.235c1.565.949 2.348 1.424 2.83 1.424.482 0 1.265-.475 2.83-1.425l2.045-1.185 1.643 2.717" style="stroke-width:.5" transform="translate(-49.985 -15.293)"/><path fill="#cf2125" d="M77.567 31.341v2.003c.102 4.882-.195 5.405-4.47 7.758l-1.411.815L70.04 39.2l1.527-.885c3.184-1.754 2.907-1.265 2.83-4.908v-2.065h3.17" style="stroke-width:.5" transform="translate(-49.985 -15.293)"/><path fill="#2d245a" d="M73.085 19.983c4.274 2.352 4.572 2.875 4.47 7.757v2.003h-3.17v-2.065c.077-3.64.357-3.152-2.83-4.907l-4.95-2.868c-1.564-.95-2.346-1.424-2.827-1.424-.481 0-1.264.475-2.83 1.424l-4.95 2.868c-3.183 1.752-2.903 1.264-2.83 4.907v2.064H50V27.74c-.102-4.88.195-5.405 4.47-7.757l.18-.103v-3.037c0-.446.363-.81.808-.81h1.407c.445 0 .809.364.809.81v1.291l1.634-.943c2.083-1.265 3.126-1.898 4.469-1.898 1.343 0 2.385.633 4.47 1.898l4.837 2.794" style="stroke-width:.5" transform="translate(-49.985 -15.293)"/><g fill-rule="evenodd"><path fill="#2d245a" d="M14.463 9.162h1.667c.16 0 .29.13.29.29v1.671c0 .16-.13.291-.29.291h-1.667a.291.291 0 0 1-.29-.291v-1.67c0-.16.13-.29.29-.29zm-3.007 2.943h1.668c.16 0 .29.13.29.291v1.67c0 .16-.13.291-.29.291h-1.669a.291.291 0 0 1-.29-.29v-1.671c0-.16.13-.291.29-.291zm3.007 0h1.667c.16 0 .29.13.29.291v1.67c0 .16-.13.291-.29.291h-1.667a.291.291 0 0 1-.29-.29v-1.671c0-.16.13-.291.29-.291zm-3.007-2.943h1.668c.16 0 .29.13.29.29v1.671c0 .16-.13.291-.29.291h-1.669a.29.29 0 0 1-.29-.291v-1.67c0-.16.13-.29.29-.29"/><path fill="#7ac62a" d="M6.231 18.193a1.45 1.45 0 0 1 1.45 1.452 1.45 1.45 0 0 1-1.45 1.451 1.45 1.45 0 0 1-1.45-1.451 1.45 1.45 0 0 1 1.45-1.452"/><path fill="#cf2125" d="M21.606 18.193c.8 0 1.45.65 1.45 1.452a1.451 1.451 0 0 1-1.45 1.451c-.8 0-1.449-.65-1.449-1.451a1.45 1.45 0 0 1 1.45-1.452"/><path fill="#f25635" d="M13.793 22.335c.8 0 1.45.65 1.45 1.452a1.45 1.45 0 0 1-1.45 1.452c-.8 0-1.45-.65-1.45-1.452a1.45 1.45 0 0 1 1.45-1.452"/></g><path fill="#2d245a" d="M91.023 20.052c.017-.163.055-.313.115-.45.06-.137.137-.256.231-.356.094-.1.203-.18.328-.238a.945.945 0 0 1 .403-.087c.167 0 .313.031.44.093a.994.994 0 0 1 .32.248c.088.102.157.223.206.36.05.137.08.28.093.43zm0 .367h2.629a.565.565 0 0 0 .006-.084v-.07a2.26 2.26 0 0 0-.102-.688 1.64 1.64 0 0 0-.302-.56 1.435 1.435 0 0 0-.488-.375 1.49 1.49 0 0 0-.654-.138 1.506 1.506 0 0 0-1.142.504 1.694 1.694 0 0 0-.33.553 1.917 1.917 0 0 0-.119.678c0 .257.044.492.132.707.087.214.206.397.356.55.15.151.325.27.526.353.2.083.415.125.641.125.317 0 .582-.057.796-.17a2.022 2.022 0 0 0 .57-.454l-.307-.276a1.75 1.75 0 0 1-.452.34 1.268 1.268 0 0 1-.594.13c-.145 0-.284-.026-.417-.075a1.115 1.115 0 0 1-.359-.218 1.154 1.154 0 0 1-.263-.354 1.363 1.363 0 0 1-.128-.478zm-3.753-.425c0-.154.025-.295.074-.424a.92.92 0 0 1 .526-.543 1.035 1.035 0 0 1 .394-.074c.295 0 .522.09.68.27.159.18.238.424.238.733v1.94h.494v-2.062c0-.198-.029-.378-.087-.54a1.202 1.202 0 0 0-.25-.422 1.11 1.11 0 0 0-.398-.273 1.4 1.4 0 0 0-.535-.096c-.287 0-.52.063-.7.19-.179.126-.325.28-.435.46v-1.948h-.494v4.692h.494zm-2.772-2.127h1.507v-.469h-3.527v.47h1.507v4.03h.514v-4.03m63.646 8.607h1.811v-.752h-1.81v-1.727h-.85v1.726h-.796v.752h.795v3.452c0 .288.04.535.122.741.08.207.193.374.336.504.144.129.315.223.514.282.199.059.412.088.64.088.207 0 .392-.02.558-.06.166-.04.322-.102.47-.183v-.73a1.896 1.896 0 0 1-.414.155 1.857 1.857 0 0 1-.414.044c-.288 0-.52-.07-.696-.21-.177-.14-.265-.387-.265-.741zm-4.77 2.688c0-.427.059-.805.176-1.134a2.37 2.37 0 0 1 .486-.824 1.987 1.987 0 0 1 .723-.497 2.341 2.341 0 0 1 .878-.166h.066v-.918a2.322 2.322 0 0 0-.761.1 2.249 2.249 0 0 0-.652.326 2.579 2.579 0 0 0-.53.514 3.03 3.03 0 0 0-.386.653v-1.494h-.85v5.718h.85zm-3.258-.564a2.405 2.405 0 0 1-.155.868 2.155 2.155 0 0 1-.43.703 1.997 1.997 0 0 1-.662.47 2.073 2.073 0 0 1-.85.171 1.992 1.992 0 0 1-.84-.177 2.131 2.131 0 0 1-.668-.475 2.175 2.175 0 0 1-.442-.708 2.381 2.381 0 0 1-.16-.874 2.4 2.4 0 0 1 .155-.869c.103-.269.245-.505.425-.707a1.885 1.885 0 0 1 .657-.476 2.07 2.07 0 0 1 .85-.171 1.99 1.99 0 0 1 .84.177 2.144 2.144 0 0 1 1.12 1.195 2.38 2.38 0 0 1 .16.873zm.873-.022a3.035 3.035 0 0 0-.22-1.15 2.89 2.89 0 0 0-.62-.946 2.966 2.966 0 0 0-.944-.642 2.938 2.938 0 0 0-1.186-.238c-.435 0-.834.08-1.199.238a2.931 2.931 0 0 0-.944.647 2.93 2.93 0 0 0-.618.957 3.055 3.055 0 0 0-.221 1.156c0 .405.073.79.22 1.15a2.889 2.889 0 0 0 .619.946 2.98 2.98 0 0 0 .938.642c.361.158.755.237 1.182.237.427 0 .825-.08 1.193-.237a2.904 2.904 0 0 0 .95-.648 3.005 3.005 0 0 0 .623-.956c.15-.365.227-.75.227-1.156zm-8.38-2.83v-.466c0-.81.33-1.216.994-1.216.147 0 .283.013.408.039.125.025.265.06.42.105v-.742a2.224 2.224 0 0 0-.425-.11 3.446 3.446 0 0 0-.514-.033c-.552 0-.977.162-1.275.486-.299.325-.447.8-.447 1.427v.498h-.785v.741h.785v4.967h.85v-4.967h1.8v-.73zm-4.051 0v-.466c0-.81.33-1.216.993-1.216.148 0 .284.013.41.039.124.025.264.06.419.105v-.742a2.212 2.212 0 0 0-.426-.11 3.443 3.443 0 0 0-.513-.033c-.552 0-.977.162-1.275.486-.299.325-.448.8-.448 1.427v.498h-.784v.741h.784v4.967h.85v-4.967h1.8v-.73zm-2.827-2.047h-5.588v7.743h5.642v-.797h-4.77v-2.709h4.218v-.796h-4.218v-2.643h4.716zm-10.954 7.855a2.63 2.63 0 0 1-1.005-.2 2.485 2.485 0 0 1-.861-.591 2.955 2.955 0 0 1-.602-.962 3.531 3.531 0 0 1-.227-1.311v-.022c0-.494.075-.931.227-1.31.15-.38.35-.701.596-.963a2.444 2.444 0 0 1 .856-.592 2.659 2.659 0 0 1 1.016-.2c.449 0 .819.09 1.11.266a2.971 2.971 0 0 1 .734.62v-2.92h1.679v8.075h-1.679v-.852a2.663 2.663 0 0 1-.746.691c-.29.18-.657.271-1.098.271zm.43-1.427a1.332 1.332 0 0 0 1.01-.448c.13-.144.233-.317.31-.52.077-.203.116-.426.116-.67v-.021a1.86 1.86 0 0 0-.116-.67 1.649 1.649 0 0 0-.31-.52 1.337 1.337 0 0 0-.452-.331 1.352 1.352 0 0 0-.558-.117 1.351 1.351 0 0 0-1.015.449 1.597 1.597 0 0 0-.315.514 1.855 1.855 0 0 0-.116.675v.022c0 .243.038.467.116.67.077.202.182.375.315.52a1.348 1.348 0 0 0 1.016.447zm-6.823 1.449a3.371 3.371 0 0 1-1.231-.221 2.846 2.846 0 0 1-1.629-1.599 3.207 3.207 0 0 1-.232-1.244v-.022c0-.42.072-.819.215-1.195a3.041 3.041 0 0 1 .602-.984 2.825 2.825 0 0 1 .922-.664 2.833 2.833 0 0 1 1.187-.243c.493 0 .92.088 1.281.265.36.177.66.415.9.714a2.977 2.977 0 0 1 .53 1.029 4.253 4.253 0 0 1 .166 1.42 6.114 6.114 0 0 1-.017.233h-4.118c.081.384.249.673.503.868.254.195.568.294.944.294.28 0 .53-.048.751-.144.22-.096.449-.25.684-.465l.961.852a2.989 2.989 0 0 1-1.016.813c-.397.195-.865.293-1.402.293zm1.082-3.562c-.051-.376-.184-.68-.397-.913-.214-.232-.497-.348-.85-.348s-.64.114-.856.343c-.217.228-.36.535-.425.918zm-6.47 3.528c-.257 0-.49-.028-.7-.083a1.25 1.25 0 0 1-.542-.294 1.41 1.41 0 0 1-.353-.547c-.085-.225-.127-.51-.127-.857v-2.81h-.707v-1.438h.707v-1.516h1.678v1.515h1.392v1.439h-1.392v2.533c0 .383.18.575.541.575a1.71 1.71 0 0 0 .829-.21v1.35a2.616 2.616 0 0 1-.586.248 2.64 2.64 0 0 1-.74.094zm-5.301-8.174h1.766v1.493h-1.766zm.044 2.146h1.678v5.93H97.74zm-6.958 0h1.679v.84c.095-.124.2-.244.315-.36a2.195 2.195 0 0 1 .38-.303 1.875 1.875 0 0 1 .465-.21c.169-.052.36-.078.573-.078.64 0 1.136.195 1.486.587.35.39.524.929.524 1.615v3.839h-1.678v-3.308c0-.398-.089-.698-.265-.901-.177-.203-.427-.304-.751-.304s-.58.101-.768.304c-.188.203-.281.503-.281.901v3.308h-1.679zm-4.947 6.051c-1.038 0-1.855-.287-2.452-.863-.596-.575-.894-1.434-.894-2.576v-4.424h1.7v4.38c0 .635.148 1.112.442 1.433.295.32.703.48 1.226.48.522 0 .931-.154 1.226-.464.294-.31.441-.774.441-1.393v-4.435h1.7v4.368c0 .59-.078 1.103-.236 1.537a2.914 2.914 0 0 1-.68 1.09 2.778 2.778 0 0 1-1.07.653c-.42.144-.888.216-1.403.216m58.988 3.509h1.583v.793a3.37 3.37 0 0 1 .297-.34c.108-.107.227-.203.36-.286.131-.083.277-.15.437-.198a1.86 1.86 0 0 1 .541-.073c.604 0 1.071.184 1.4.553.33.368.496.876.496 1.523v3.62h-1.583v-3.12c0-.376-.084-.66-.25-.85-.167-.192-.403-.288-.708-.288-.306 0-.547.096-.724.287-.177.192-.266.475-.266.85v3.12h-1.583zm-4.175 5.716c-.43 0-.83-.075-1.198-.224a2.865 2.865 0 0 1-1.583-1.534 2.808 2.808 0 0 1-.229-1.132v-.02c0-.404.077-.781.23-1.133a2.885 2.885 0 0 1 .634-.923 3.015 3.015 0 0 1 .958-.626 3.118 3.118 0 0 1 1.208-.23c.43 0 .83.075 1.198.225.368.15.685.355.953.615a2.862 2.862 0 0 1 .63.918 2.805 2.805 0 0 1 .23 1.132v.021a2.81 2.81 0 0 1-.23 1.132 2.89 2.89 0 0 1-.635.924 3.022 3.022 0 0 1-.958.626 3.119 3.119 0 0 1-1.208.23zm.02-1.366c.23 0 .433-.04.61-.12.177-.08.328-.19.453-.33.125-.138.22-.3.286-.484a1.74 1.74 0 0 0 .1-.59v-.02a1.67 1.67 0 0 0-.105-.59 1.486 1.486 0 0 0-.77-.83 1.399 1.399 0 0 0-.594-.124c-.23 0-.432.04-.61.12a1.345 1.345 0 0 0-.452.328c-.125.14-.22.3-.287.485a1.736 1.736 0 0 0-.099.59v.02c0 .21.035.406.105.59a1.495 1.495 0 0 0 .765.83c.177.083.376.124.599.124zm-5.874-6.375h1.667v1.409h-1.667zm.042 2.024h1.583v5.593h-1.583zm-2.51 5.687c-.243 0-.463-.026-.661-.078a1.181 1.181 0 0 1-.51-.277 1.34 1.34 0 0 1-.334-.516c-.08-.212-.12-.482-.12-.809v-2.65h-.666v-1.356h.667v-1.429h1.583v1.43h1.312v1.355h-1.312v2.389c0 .361.17.543.51.543a1.61 1.61 0 0 0 .78-.199v1.273a2.479 2.479 0 0 1-.55.235 2.494 2.494 0 0 1-.699.088zm-6.467.01a2.465 2.465 0 0 1-.745-.11 1.75 1.75 0 0 1-.609-.328 1.572 1.572 0 0 1-.411-.537 1.69 1.69 0 0 1-.151-.735v-.021c0-.306.055-.57.166-.793a1.525 1.525 0 0 1 .464-.553 2.085 2.085 0 0 1 .708-.329 3.54 3.54 0 0 1 .911-.11 3.903 3.903 0 0 1 1.365.23v-.094c0-.333-.101-.587-.303-.761-.201-.174-.5-.261-.895-.261-.306 0-.575.026-.807.078a5.454 5.454 0 0 0-.735.224l-.395-1.21c.305-.132.625-.24.958-.323a5.057 5.057 0 0 1 1.207-.125c.438 0 .81.054 1.12.162.31.107.564.262.765.464.21.208.362.464.459.766.097.303.146.642.146 1.017v3.244h-1.531v-.605a2.204 2.204 0 0 1-.698.517c-.27.128-.6.192-.99.192zm.479-1.095c.375 0 .675-.09.9-.271a.867.867 0 0 0 .34-.71v-.282a2.41 2.41 0 0 0-.464-.15 2.498 2.498 0 0 0-.547-.058c-.34 0-.607.066-.802.198a.65.65 0 0 0-.291.574v.02c0 .216.08.383.239.502.16.118.368.177.625.177zm-8.112-.125 2.885-3.193h-2.792v-1.283h4.759v1.116l-2.894 3.193h2.894v1.283h-4.854zm-2.928-6.5h1.667v1.408h-1.667zm.042 2.023h1.583v5.593h-1.583zm-6.56 0h1.582v.793a3.375 3.375 0 0 1 .297-.339 2.075 2.075 0 0 1 .36-.287 1.805 1.805 0 0 1 .437-.198c.16-.048.34-.073.541-.073.605 0 1.072.184 1.401.553.33.369.495.876.495 1.523v3.62h-1.583v-3.12c0-.375-.083-.659-.25-.85-.167-.191-.403-.287-.708-.287-.306 0-.547.096-.724.287-.177.191-.265.475-.265.85v3.12h-1.583zm-4.582 5.696a2.462 2.462 0 0 1-.745-.11 1.753 1.753 0 0 1-.61-.328 1.578 1.578 0 0 1-.41-.537 1.705 1.705 0 0 1-.152-.736v-.02c0-.306.056-.57.167-.793.111-.223.266-.407.464-.553a2.09 2.09 0 0 1 .707-.329 3.542 3.542 0 0 1 .912-.11 3.913 3.913 0 0 1 1.365.23v-.094c0-.333-.101-.588-.303-.761-.201-.174-.5-.261-.896-.261-.305 0-.574.026-.806.078a5.475 5.475 0 0 0-.735.225l-.395-1.21a6.21 6.21 0 0 1 .957-.324 5.064 5.064 0 0 1 1.208-.125c.438 0 .81.053 1.12.161.309.108.564.263.765.464.209.21.361.465.459.767.097.303.146.642.146 1.017v3.244h-1.531v-.605a2.204 2.204 0 0 1-.698.516c-.27.13-.6.193-.99.193zm.479-1.095c.375 0 .675-.09.9-.271a.868.868 0 0 0 .34-.71v-.282a2.497 2.497 0 0 0-1.01-.208c-.342 0-.609.066-.803.198a.652.652 0 0 0-.292.574v.02c0 .216.08.383.24.501.16.118.368.178.625.178zm-6.592 2.681c-.459 0-.896-.05-1.313-.15a4.924 4.924 0 0 1-1.155-.434l.541-1.19c.292.16.585.286.88.377.295.09.63.135 1.005.135.542 0 .942-.128 1.203-.386.26-.257.39-.637.39-1.137v-.271a2.86 2.86 0 0 1-.77.667c-.278.16-.628.24-1.052.24a2.595 2.595 0 0 1-.937-.172 2.315 2.315 0 0 1-.792-.506 2.435 2.435 0 0 1-.546-.82 2.852 2.852 0 0 1-.204-1.11v-.02c0-.418.07-.789.209-1.112a2.502 2.502 0 0 1 .552-.82 2.314 2.314 0 0 1 .791-.505 2.557 2.557 0 0 1 .927-.172c.43 0 .785.08 1.062.24.278.16.525.358.74.595v-.73h1.583v4.33c0 .993-.237 1.727-.708 2.2a2.299 2.299 0 0 1-.995.574c-.399.118-.87.177-1.41.177zm.187-3.463c.195 0 .375-.031.542-.094a1.275 1.275 0 0 0 .432-.266 1.24 1.24 0 0 0 .286-.412 1.3 1.3 0 0 0 .104-.522v-.02c0-.188-.035-.362-.104-.522a1.24 1.24 0 0 0-.286-.412 1.27 1.27 0 0 0-.432-.266 1.528 1.528 0 0 0-.542-.094c-.194 0-.373.031-.536.094a1.239 1.239 0 0 0-.714.678c-.069.16-.104.334-.104.521v.021c0 .39.129.703.385.94.257.236.58.354.97.354zm-7.04-3.819h1.582v1.127c.16-.382.379-.688.656-.918.278-.23.653-.334 1.125-.313v1.659h-.083c-.527 0-.943.16-1.245.48-.302.32-.453.817-.453 1.492v2.065h-1.583zm-5.144 5.717c-.562 0-1.08-.1-1.552-.298a3.863 3.863 0 0 1-1.224-.803 3.595 3.595 0 0 1-.801-1.19 3.753 3.753 0 0 1-.287-1.465v-.02c0-.522.097-1.01.292-1.466a3.775 3.775 0 0 1 .807-1.2 3.759 3.759 0 0 1 1.229-.814 4.007 4.007 0 0 1 1.557-.297c.562 0 1.08.099 1.55.297a3.875 3.875 0 0 1 1.225.803 3.6 3.6 0 0 1 .802 1.19 3.755 3.755 0 0 1 .286 1.465v.021c0 .522-.097 1.01-.292 1.466a3.783 3.783 0 0 1-.807 1.2 3.757 3.757 0 0 1-1.228.814 4.01 4.01 0 0 1-1.557.297zm.02-1.482a2.185 2.185 0 0 0 .886-.177 2.025 2.025 0 0 0 .692-.49c.191-.209.34-.45.448-.725a2.395 2.395 0 0 0 .161-.882v-.021c0-.313-.053-.609-.16-.887a2.201 2.201 0 0 0-.46-.73 2.208 2.208 0 0 0-.702-.496 2.136 2.136 0 0 0-.885-.182 2.18 2.18 0 0 0-.891.177 2.03 2.03 0 0 0-.687.49c-.191.21-.34.45-.448.725a2.396 2.396 0 0 0-.162.882v.021c0 .313.055.609.162.887a2.205 2.205 0 0 0 1.156 1.226 2.122 2.122 0 0 0 .89.182" style="stroke-width:.5" transform="translate(-49.985 -15.293)"/></svg>