<svg width="200" height="61" xml:space="preserve" xmlns="http://www.w3.org/2000/svg"><path d="m11.62 53.194-2.65-1.53C.423 46.962-.174 45.917.031 36.153v-4.007H6.37v4.13c-.153 7.28-.713 6.309 5.66 9.816l2.882 1.67-3.29 5.436" fill="#7ac62a"/><path d="m40.622 54.881-4.097 2.365c-4.168 2.53-6.252 3.795-8.938 3.795-2.686 0-4.77-1.266-8.94-3.795l-4.269-2.465 3.287-5.432 4.263 2.47c3.129 1.898 4.695 2.848 5.66 2.848.964 0 2.53-.95 5.66-2.849l4.09-2.37 3.286 5.433" fill="#f25635"/><path d="M55.163 32.14v4.005c.205 9.764-.39 10.81-8.94 15.517l-2.822 1.63-3.29-5.437 3.055-1.77c6.367-3.507 5.813-2.529 5.66-9.815v-4.13h6.338" fill="#cf2125"/><path d="M46.2 9.424c8.547 4.704 9.144 5.75 8.939 15.513v4.006H48.8v-4.13c.153-7.28.713-6.303-5.66-9.814l-9.899-5.735c-3.129-1.9-4.694-2.849-5.655-2.849-.963 0-2.528.95-5.66 2.849l-9.9 5.735c-6.366 3.505-5.807 2.528-5.659 9.815v4.128H.03v-4.005c-.205-9.76.39-10.81 8.938-15.513l.36-.207V3.143c0-.892.727-1.62 1.618-1.62h2.813c.89 0 1.618.728 1.618 1.62v2.583l3.268-1.887C22.812 1.31 24.897.044 27.583.044s4.77 1.266 8.939 3.795l9.675 5.588" fill="#2d245a"/><g fill-rule="evenodd"><path d="M28.925 18.368h3.335c.32 0 .58.261.58.581v3.341c0 .32-.26.582-.58.582h-3.335a.582.582 0 0 1-.58-.582v-3.34c0-.32.26-.58.58-.58zm-6.014 5.886h3.336c.32 0 .58.261.58.582v3.341c0 .32-.261.581-.58.581H22.91a.582.582 0 0 1-.58-.581v-3.341c0-.32.26-.582.58-.582zm6.014 0h3.335c.32 0 .58.261.58.582v3.341c0 .32-.26.581-.58.581h-3.335a.582.582 0 0 1-.58-.581v-3.341c0-.32.26-.582.58-.582zm-6.014-5.886h3.336c.32 0 .58.261.58.581v3.341c0 .32-.261.582-.58.582H22.91a.581.581 0 0 1-.58-.582v-3.34c0-.32.26-.58.58-.58" fill="#2d245a"/><path d="M12.462 36.43a2.9 2.9 0 0 1 2.898 2.904 2.901 2.901 0 0 1-2.898 2.903 2.901 2.901 0 0 1-2.899-2.903 2.901 2.901 0 0 1 2.899-2.904" fill="#7ac62a"/><path d="M43.212 36.43c1.6 0 2.899 1.3 2.899 2.904a2.902 2.902 0 0 1-2.899 2.903c-1.6 0-2.898-1.3-2.898-2.903a2.901 2.901 0 0 1 2.898-2.904" fill="#cf2125"/><path d="M27.586 44.714c1.6 0 2.899 1.3 2.899 2.903a2.901 2.901 0 0 1-2.899 2.904c-1.6 0-2.899-1.3-2.899-2.904a2.901 2.901 0 0 1 2.9-2.903" fill="#f25635"/></g><path d="M82.075 9.562c.034-.326.111-.626.231-.9.12-.274.273-.512.462-.713.188-.201.406-.36.655-.476a1.89 1.89 0 0 1 .806-.173c.334 0 .627.062.88.186.252.124.466.29.641.495.176.205.313.446.411.72.099.274.16.561.186.86zm0 .733h5.258a1.13 1.13 0 0 0 .013-.167v-.141c0-.49-.069-.947-.205-1.376a3.28 3.28 0 0 0-.603-1.118 2.87 2.87 0 0 0-.976-.751 2.981 2.981 0 0 0-1.308-.277 3.013 3.013 0 0 0-2.284 1.008 3.388 3.388 0 0 0-.66 1.106 3.835 3.835 0 0 0-.238 1.356c0 .514.088.985.263 1.414.175.428.413.794.712 1.1.3.303.65.54 1.052.706.402.167.83.251 1.283.251.633 0 1.163-.114 1.591-.341a4.045 4.045 0 0 0 1.142-.907l-.615-.552c-.275.283-.576.51-.905.68-.33.172-.725.258-1.187.258-.29 0-.569-.05-.834-.148a2.231 2.231 0 0 1-.718-.437 2.308 2.308 0 0 1-.526-.707 2.725 2.725 0 0 1-.257-.957zm-7.505-.849c0-.308.049-.59.147-.848a1.84 1.84 0 0 1 1.053-1.086 2.07 2.07 0 0 1 .788-.148c.59 0 1.044.18 1.36.54.317.36.475.848.475 1.465v3.881h.988V9.125c0-.395-.057-.755-.173-1.08a2.405 2.405 0 0 0-.5-.843 2.219 2.219 0 0 0-.796-.546 2.801 2.801 0 0 0-1.07-.192c-.574 0-1.04.126-1.4.379-.358.253-.65.56-.871.919V3.867h-.988v9.384h.988zm-5.545-4.254h3.015v-.938h-7.055v.938H68v8.06h1.027v-8.06M196.32 22.407h3.622v-1.504h-3.622V17.45h-1.7v3.452h-1.59v1.504h1.59v6.904c0 .575.08 1.07.243 1.482.162.413.386.748.673 1.007.287.258.63.446 1.028.564.397.118.824.177 1.28.177.413 0 .784-.04 1.116-.122.332-.08.644-.202.939-.365v-1.46c-.296.148-.571.25-.828.31a3.715 3.715 0 0 1-.828.088c-.575 0-1.04-.14-1.392-.42-.353-.28-.53-.774-.53-1.482zm-9.541 5.377c0-.855.118-1.611.353-2.268.236-.656.56-1.205.972-1.648a3.974 3.974 0 0 1 1.446-.995 4.683 4.683 0 0 1 1.756-.332h.132v-1.836a4.644 4.644 0 0 0-1.523.199 4.498 4.498 0 0 0-1.303.653c-.398.287-.751.63-1.06 1.028a6.06 6.06 0 0 0-.773 1.306v-2.987h-1.7V32.34h1.7zm-6.515-1.128a4.81 4.81 0 0 1-.31 1.736 4.31 4.31 0 0 1-.86 1.405 3.994 3.994 0 0 1-1.325.94 4.146 4.146 0 0 1-1.7.343 3.983 3.983 0 0 1-1.68-.354 4.262 4.262 0 0 1-1.335-.95 4.35 4.35 0 0 1-.884-1.417 4.762 4.762 0 0 1-.32-1.748 4.8 4.8 0 0 1 .31-1.737c.205-.538.489-1.01.85-1.415a3.77 3.77 0 0 1 1.313-.951 4.139 4.139 0 0 1 1.701-.343 3.98 3.98 0 0 1 1.679.354 4.288 4.288 0 0 1 2.241 2.39 4.76 4.76 0 0 1 .32 1.747zm1.745-.044a6.07 6.07 0 0 0-.441-2.302 5.781 5.781 0 0 0-1.238-1.891 5.933 5.933 0 0 0-1.888-1.283 5.876 5.876 0 0 0-2.373-.476c-.87 0-1.668.159-2.397.476a5.862 5.862 0 0 0-1.889 1.294 5.861 5.861 0 0 0-1.236 1.914 6.11 6.11 0 0 0-.442 2.312c0 .81.147 1.578.442 2.3a5.777 5.777 0 0 0 1.236 1.891 5.96 5.96 0 0 0 1.877 1.284c.722.316 1.51.475 2.364.475.853 0 1.649-.159 2.385-.475a5.807 5.807 0 0 0 1.899-1.295 6.009 6.009 0 0 0 1.248-1.913c.301-.73.453-1.5.453-2.312zm-16.76-5.662v-.93c0-1.62.662-2.433 1.988-2.433.294 0 .567.026.817.078.25.051.53.121.84.21v-1.483a4.448 4.448 0 0 0-.851-.221 6.891 6.891 0 0 0-1.027-.066c-1.105 0-1.955.325-2.551.973-.597.65-.894 1.601-.894 2.854v.996h-1.569v1.482h1.569v9.934h1.7V22.41h3.6v-1.46zm-8.102 0v-.93c0-1.62.662-2.433 1.987-2.433.295 0 .567.026.818.078.25.051.53.121.839.21v-1.483a4.425 4.425 0 0 0-.851-.221 6.887 6.887 0 0 0-1.027-.066c-1.104 0-1.954.325-2.55.973-.597.65-.895 1.601-.895 2.854v.996H153.9v1.482h1.568v9.934h1.7V22.41h3.6v-1.46zm-5.654-4.093h-11.176v15.486h11.285V30.75h-9.54v-5.418h8.436v-1.593h-8.437v-5.285h9.432zm-21.908 15.71a5.26 5.26 0 0 1-2.01-.398 4.97 4.97 0 0 1-1.722-1.184c-.5-.523-.902-1.165-1.204-1.924-.302-.76-.453-1.634-.453-2.622v-.044c0-.988.15-1.862.453-2.621.302-.76.7-1.401 1.192-1.925a4.888 4.888 0 0 1 1.712-1.184 5.317 5.317 0 0 1 2.032-.398c.898 0 1.638.177 2.22.53a5.943 5.943 0 0 1 1.469 1.24v-5.84h3.357v16.15h-3.357v-1.704a5.326 5.326 0 0 1-1.492 1.383c-.581.361-1.314.542-2.197.542zm.861-2.854a2.664 2.664 0 0 0 2.02-.896c.258-.287.465-.634.619-1.04.155-.405.232-.851.232-1.338v-.044a3.72 3.72 0 0 0-.232-1.338 3.297 3.297 0 0 0-.618-1.04 2.674 2.674 0 0 0-.905-.664 2.704 2.704 0 0 0-1.116-.233 2.702 2.702 0 0 0-2.031.897c-.266.288-.476.63-.63 1.028a3.709 3.709 0 0 0-.232 1.35v.044c0 .487.077.934.232 1.339.154.405.364.752.63 1.04.265.287.57.508.916.663.346.155.718.232 1.115.232zM116.8 32.611a6.742 6.742 0 0 1-2.463-.442 5.692 5.692 0 0 1-3.257-3.197c-.31-.744-.464-1.574-.464-2.489v-.044c0-.84.144-1.637.43-2.39a6.082 6.082 0 0 1 1.204-1.968 5.651 5.651 0 0 1 1.844-1.327c.714-.325 1.506-.487 2.374-.487.986 0 1.84.177 2.562.53.721.355 1.321.83 1.8 1.428a5.953 5.953 0 0 1 1.06 2.058 8.505 8.505 0 0 1 .331 2.842c-.008.147-.018.303-.033.465h-8.236c.162.767.497 1.346 1.005 1.736.508.39 1.137.587 1.888.587.56 0 1.061-.096 1.503-.288.44-.192.897-.501 1.368-.93l1.922 1.704a5.978 5.978 0 0 1-2.032 1.627c-.795.39-1.73.586-2.805.586zm2.164-7.123c-.103-.753-.368-1.361-.795-1.826-.427-.465-.994-.697-1.7-.697s-1.278.229-1.712.686c-.434.457-.718 1.07-.85 1.837zm-12.94 7.055c-.514 0-.982-.056-1.402-.166a2.5 2.5 0 0 1-1.082-.587c-.302-.28-.537-.645-.707-1.095-.17-.45-.254-1.021-.254-1.714v-5.62h-1.413v-2.876h1.413v-3.031h3.357v3.03h2.783v2.877h-2.783v5.066c0 .766.361 1.15 1.082 1.15a3.42 3.42 0 0 0 1.657-.42v2.699a5.233 5.233 0 0 1-1.171.497 5.28 5.28 0 0 1-1.48.188zM95.421 16.195h3.533v2.987h-3.533zm.088 4.293h3.357v11.859H95.51zm-13.915 0h3.357v1.681c.191-.25.401-.49.63-.72a4.39 4.39 0 0 1 .762-.607 3.75 3.75 0 0 1 .928-.42c.338-.104.72-.156 1.147-.156 1.281 0 2.271.39 2.971 1.173.7.781 1.049 1.858 1.049 3.23v7.678h-3.357v-6.615c0-.796-.177-1.397-.53-1.803-.354-.405-.854-.608-1.502-.608s-1.16.203-1.535.608c-.376.406-.563 1.007-.563 1.803v6.615h-3.357zM71.7 32.59c-2.076 0-3.71-.575-4.904-1.726-1.192-1.15-1.788-2.868-1.788-5.153v-8.847h3.4v8.76c0 1.269.295 2.223.884 2.865.589.642 1.406.962 2.451.962 1.045 0 1.863-.31 2.452-.93.589-.618.883-1.547.883-2.786v-8.87h3.401v8.737c0 1.18-.158 2.205-.474 3.074-.318.87-.77 1.597-1.359 2.18a5.556 5.556 0 0 1-2.142 1.305c-.84.288-1.774.432-2.805.432m117.977 7.018h3.166v1.586a6.74 6.74 0 0 1 .593-.678c.216-.216.455-.407.72-.574.263-.166.554-.298.874-.396a3.72 3.72 0 0 1 1.083-.146c1.208 0 2.142.369 2.801 1.106.66.737.99 1.752.99 3.047v7.238h-3.166v-6.239c0-.751-.167-1.318-.5-1.7-.333-.383-.805-.575-1.416-.575s-1.094.192-1.447.574c-.355.383-.532.95-.532 1.701v6.24h-3.166zm-8.351 11.433c-.86 0-1.659-.15-2.395-.448-.736-.3-1.371-.71-1.906-1.232s-.954-1.133-1.26-1.836a5.616 5.616 0 0 1-.458-2.264v-.041c0-.807.153-1.562.458-2.265a5.77 5.77 0 0 1 1.27-1.846 6.031 6.031 0 0 1 1.916-1.252 6.235 6.235 0 0 1 2.416-.46c.861 0 1.66.15 2.396.45.736.299 1.37.709 1.905 1.23a5.725 5.725 0 0 1 1.26 1.836 5.61 5.61 0 0 1 .459 2.264v.042a5.62 5.62 0 0 1-.458 2.264 5.78 5.78 0 0 1-1.27 1.847 6.045 6.045 0 0 1-1.917 1.252 6.237 6.237 0 0 1-2.416.459zm.042-2.733c.458 0 .864-.08 1.219-.24.353-.16.655-.38.905-.658s.441-.601.573-.97a3.48 3.48 0 0 0 .198-1.179v-.041c0-.417-.07-.81-.208-1.179a2.973 2.973 0 0 0-1.542-1.659 2.798 2.798 0 0 0-1.187-.25c-.458 0-.864.08-1.218.24a2.69 2.69 0 0 0-.906.657c-.25.278-.44.601-.573.97a3.473 3.473 0 0 0-.198 1.179v.042c0 .417.07.81.209 1.178a2.99 2.99 0 0 0 1.53 1.659c.355.167.753.25 1.198.25zm-11.75-12.749h3.334v2.817h-3.334zm.084 4.048h3.166v11.185h-3.166zm-5.019 11.373c-.486 0-.927-.052-1.323-.156a2.363 2.363 0 0 1-1.02-.553 2.68 2.68 0 0 1-.667-1.033c-.16-.424-.24-.964-.24-1.617v-5.3H160.1v-2.712h1.333v-2.858h3.166v2.858h2.624v2.712h-2.624v4.777c0 .723.34 1.086 1.02 1.086a3.22 3.22 0 0 0 1.562-.397v2.545a4.958 4.958 0 0 1-1.103.47 4.987 4.987 0 0 1-1.396.177zm-12.935.021a4.93 4.93 0 0 1-1.49-.22 3.501 3.501 0 0 1-1.217-.656 3.144 3.144 0 0 1-.823-1.075c-.202-.424-.302-.914-.302-1.47v-.042c0-.612.11-1.14.333-1.586a3.05 3.05 0 0 1 .927-1.106 4.17 4.17 0 0 1 1.416-.657 7.08 7.08 0 0 1 1.823-.22c.57 0 1.066.043 1.489.126.424.084.836.195 1.24.334v-.188c0-.667-.202-1.175-.605-1.523-.403-.348-1-.522-1.791-.522-.611 0-1.15.053-1.614.157-.466.104-.955.254-1.469.448l-.791-2.42c.61-.264 1.25-.48 1.916-.647.666-.166 1.471-.25 2.415-.25.876 0 1.621.108 2.24.324.618.215 1.128.524 1.53.928.418.417.723.928.917 1.533.195.605.292 1.284.292 2.034v6.487h-3.062v-1.21a4.407 4.407 0 0 1-1.395 1.034c-.542.257-1.201.385-1.979.385zm.958-2.191c.75 0 1.35-.181 1.802-.542.451-.362.677-.835.677-1.42v-.563a4.82 4.82 0 0 0-.927-.302 4.997 4.997 0 0 0-1.093-.115c-.681 0-1.215.133-1.604.397s-.583.646-.583 1.147v.042c0 .431.16.765.478 1.002.32.236.737.354 1.25.354zm-16.223-.25 5.77-6.386h-5.584v-2.566h9.517v2.233l-5.788 6.385h5.788v2.567h-9.708zm-5.856-13h3.333v2.816h-3.333zm.084 4.047h3.166v11.186h-3.166zm-13.122 0h3.166v1.586a6.75 6.75 0 0 1 .594-.678 4.15 4.15 0 0 1 .718-.574 3.61 3.61 0 0 1 .875-.396c.32-.097.68-.146 1.083-.146 1.209 0 2.143.368 2.802 1.106.66.737.99 1.752.99 3.046v7.239h-3.166v-6.24c0-.75-.167-1.317-.5-1.7-.334-.382-.806-.574-1.417-.574s-1.093.192-1.447.574c-.354.383-.531.95-.531 1.7v6.24h-3.166zm-9.163 11.392a4.923 4.923 0 0 1-1.49-.22 3.506 3.506 0 0 1-1.218-.656 3.156 3.156 0 0 1-.823-1.075c-.2-.424-.302-.914-.302-1.471v-.041c0-.612.111-1.14.333-1.586.223-.445.532-.814.928-1.106a4.18 4.18 0 0 1 1.415-.657 7.083 7.083 0 0 1 1.823-.22c.57 0 1.066.043 1.49.126.423.084.836.194 1.24.334v-.188c0-.667-.202-1.176-.605-1.523-.403-.348-1-.522-1.792-.522-.61 0-1.148.053-1.613.156a10.95 10.95 0 0 0-1.47.45l-.79-2.421c.61-.264 1.249-.48 1.915-.647.667-.166 1.472-.25 2.416-.25.875 0 1.621.107 2.24.323.617.216 1.127.525 1.53.928.417.418.722.929.917 1.534.194.605.292 1.284.292 2.034v6.487h-3.062v-1.21a4.409 4.409 0 0 1-1.396 1.033c-.54.258-1.2.386-1.978.386zm.958-2.191c.75 0 1.35-.181 1.802-.542.45-.362.677-.835.677-1.42v-.563a4.993 4.993 0 0 0-2.02-.417c-.682 0-1.216.132-1.605.396-.388.265-.583.647-.583 1.148v.042c0 .43.16.765.48 1.001.318.236.735.355 1.249.355zm-13.184 5.363c-.917 0-1.791-.1-2.625-.302a9.848 9.848 0 0 1-2.311-.866l1.083-2.379c.583.32 1.17.57 1.76.752.59.18 1.26.27 2.01.27 1.083 0 1.884-.256 2.405-.772.522-.514.782-1.273.782-2.274v-.542c-.472.57-.986 1.015-1.542 1.335-.555.32-1.256.48-2.103.48a5.19 5.19 0 0 1-1.875-.344A4.63 4.63 0 0 1 92.2 48.52a4.87 4.87 0 0 1-1.093-1.639c-.271-.646-.407-1.387-.407-2.222v-.041c0-.835.14-1.576.417-2.222a5.004 5.004 0 0 1 1.104-1.639 4.629 4.629 0 0 1 1.583-1.011 5.113 5.113 0 0 1 1.854-.345c.861 0 1.57.16 2.124.48.555.32 1.049.716 1.479 1.19V39.61h3.166v8.66c0 1.988-.473 3.456-1.416 4.401-.528.53-1.19.911-1.989 1.149-.798.236-1.74.354-2.822.354zm.375-6.927c.389 0 .75-.062 1.083-.187a2.55 2.55 0 0 0 .864-.532 2.48 2.48 0 0 0 .573-.824 2.6 2.6 0 0 0 .208-1.044v-.042c0-.375-.07-.723-.208-1.043a2.48 2.48 0 0 0-.573-.824 2.54 2.54 0 0 0-.864-.532 3.056 3.056 0 0 0-1.083-.188c-.389 0-.747.063-1.073.188a2.478 2.478 0 0 0-1.427 1.356c-.138.32-.208.668-.208 1.043v.042c0 .78.257 1.405.77 1.878.514.473 1.16.71 1.938.71zM82.492 39.61h3.166v2.254c.319-.765.757-1.377 1.312-1.837.556-.458 1.305-.667 2.25-.625v3.317h-.166c-1.055 0-1.886.32-2.49.96-.604.64-.906 1.635-.906 2.984v4.13h-3.166zM72.205 51.043c-1.124 0-2.16-.198-3.103-.595a7.726 7.726 0 0 1-2.448-1.606 7.191 7.191 0 0 1-1.603-2.379 7.507 7.507 0 0 1-.573-2.931v-.042c0-1.043.194-2.02.583-2.931a7.549 7.549 0 0 1 1.614-2.4 7.517 7.517 0 0 1 2.458-1.628c.95-.396 1.988-.594 3.114-.594 1.124 0 2.159.198 3.102.594a7.75 7.75 0 0 1 2.448 1.607 7.2 7.2 0 0 1 1.604 2.379 7.51 7.51 0 0 1 .573 2.931v.042c0 1.043-.195 2.02-.584 2.932a7.566 7.566 0 0 1-1.614 2.4 7.514 7.514 0 0 1-2.457 1.627c-.951.396-1.989.595-3.114.595zm.042-2.963a4.37 4.37 0 0 0 1.77-.355 4.049 4.049 0 0 0 1.385-.98c.382-.417.68-.9.896-1.45a4.79 4.79 0 0 0 .322-1.764v-.042c0-.626-.107-1.217-.322-1.773a4.402 4.402 0 0 0-.917-1.46 4.416 4.416 0 0 0-1.406-.992 4.272 4.272 0 0 0-1.77-.365 4.36 4.36 0 0 0-1.782.355 4.059 4.059 0 0 0-1.374.98c-.382.418-.68.901-.895 1.45a4.791 4.791 0 0 0-.324 1.764v.042c0 .625.109 1.217.324 1.773a4.411 4.411 0 0 0 2.312 2.452 4.244 4.244 0 0 0 1.781.365" fill="#2d245a"/></svg>