<?xml version="1.0" standalone="no"?>
<!DOCTYPE svg PUBLIC "-//W3C//DTD SVG 20010904//EN"
 "http://www.w3.org/TR/2001/REC-SVG-20010904/DTD/svg10.dtd">
<svg version="1.0" xmlns="http://www.w3.org/2000/svg"
 width="700.000000pt" height="700.000000pt" viewBox="0 0 700.000000 700.000000"
 preserveAspectRatio="xMidYMid meet">
<metadata>
Created by potrace 1.14, written by Peter Selinger 2001-2017
</metadata>
<g transform="translate(0.000000,700.000000) scale(0.100000,-0.100000)"
fill="#000000" stroke="none">
<path d="M3315 6855 c-153 -35 -344 -125 -630 -296 -209 -125 -525 -309 -531
-309 -2 0 -4 70 -4 155 0 201 -16 245 -105 286 -34 16 -67 19 -228 19 -195 0
-235 -7 -280 -48 -51 -46 -52 -53 -57 -442 l-5 -364 -80 -44 c-163 -90 -413
-242 -500 -303 -169 -120 -296 -265 -352 -402 -81 -196 -94 -335 -91 -947 l3
-485 347 -3 347 -2 3 532 c4 608 1 586 90 683 55 61 149 122 368 240 152 82
1153 660 1445 835 206 123 334 187 399 199 95 18 204 -27 504 -208 245 -148
1250 -728 1447 -836 279 -152 356 -209 400 -296 43 -83 47 -140 43 -658 l-3
-486 350 0 350 0 0 520 c0 373 -4 545 -13 610 -54 370 -185 555 -566 795 -54
34 -180 108 -280 164 -261 148 -1191 686 -1391 806 -217 129 -425 232 -540
266 -75 22 -114 27 -235 30 -99 2 -164 -1 -205 -11z"/>
<path d="M2940 4830 c-19 -19 -20 -33 -20 -233 0 -195 2 -215 18 -230 16 -15
47 -17 228 -17 115 0 214 4 220 8 29 19 34 56 34 247 0 264 20 245 -255 245
-192 0 -206 -1 -225 -20z"/>
<path d="M3605 4825 c-25 -24 -25 -25 -25 -230 0 -192 1 -206 20 -225 19 -19
33 -20 233 -20 195 0 215 2 230 18 15 16 17 47 17 230 l0 211 -26 20 c-25 20
-40 21 -226 21 -198 0 -199 0 -223 -25z"/>
<path d="M2960 4193 c-37 -13 -40 -32 -40 -248 0 -193 2 -213 18 -228 16 -15
47 -17 228 -17 166 0 214 3 230 14 18 13 19 30 22 225 l3 211 -25 25 -25 25
-198 -1 c-109 0 -205 -3 -213 -6z"/>
<path d="M3605 4175 c-25 -24 -25 -25 -25 -227 0 -168 3 -207 16 -226 15 -22
19 -22 233 -22 198 0 219 2 234 18 15 16 17 47 17 230 l0 211 -26 20 c-25 20
-40 21 -226 21 -198 0 -199 0 -223 -25z"/>
<path d="M450 2898 c0 -604 15 -781 81 -964 74 -203 241 -374 546 -557 154
-93 655 -378 658 -375 7 8 348 575 352 584 4 12 -155 107 -477 284 -385 212
-437 262 -460 442 -5 42 -6 271 -3 541 l6 467 -351 0 -352 0 0 -422z"/>
<path d="M5848 2793 c-4 -599 -1 -580 -85 -674 -60 -66 -119 -105 -358 -236
-339 -185 -524 -296 -517 -308 4 -6 85 -140 181 -298 95 -158 177 -287 181
-287 17 0 651 367 770 445 329 218 448 384 507 709 13 75 17 189 20 634 l5
542 -351 0 -350 0 -3 -527z"/>
<path d="M1763 2840 c-95 -20 -180 -86 -223 -175 -33 -68 -35 -198 -4 -266 31
-66 87 -124 152 -156 77 -38 190 -39 270 -4 68 31 145 113 167 182 26 78 17
189 -20 258 -66 120 -211 188 -342 161z"/>
<path d="M5123 2832 c-130 -47 -215 -165 -215 -300 1 -113 47 -204 137 -267
61 -44 120 -59 208 -53 171 11 293 144 291 318 0 95 -27 159 -92 223 -88 86
-220 118 -329 79z"/>
<path d="M3410 1921 c-173 -57 -267 -234 -215 -407 22 -74 79 -141 155 -183
59 -32 72 -36 145 -36 66 0 90 5 135 26 70 33 126 89 159 159 35 74 37 192 3
261 -33 67 -83 121 -143 154 -45 24 -68 29 -134 32 -44 1 -91 -1 -105 -6z"/>
<path d="M2264 1193 c-76 -126 -157 -259 -181 -298 -32 -53 -39 -73 -30 -81 7
-6 82 -51 167 -99 85 -49 261 -151 390 -228 494 -293 650 -356 881 -357 238 0
420 70 864 337 110 66 284 168 388 227 103 59 189 111 191 114 6 11 -354 597
-365 594 -12 -3 -468 -268 -624 -362 -173 -105 -336 -187 -400 -200 -46 -10
-64 -9 -111 5 -74 21 -217 96 -434 227 -131 78 -505 297 -592 344 -3 3 -68
-98 -144 -223z"/>
</g>
</svg>
